<svg xmlns="http://www.w3.org/2000/svg" viewBox="0 0 1647.49 594.62"><defs><style>.cls-1{isolation:isolate;}.cls-2{fill:#f6f6f6;}.cls-3{fill:#353535;}.cls-4{fill:#474747;}.cls-5{fill:#c6c6c6;}.cls-6{fill:#fff;}.cls-7{fill:#573043;}.cls-8{fill:#402834;}.cls-9{fill:#ff5722;}.cls-10{fill:#b6b7ab;}.cls-11{opacity:0.23;}.cls-12{fill:#e1e5f2;}.cls-13{fill:#f6e36a;}.cls-14{fill:#3d3c4c;}.cls-15{fill:#c47e54;}.cls-16,.cls-24{fill:#ededed;}.cls-17{fill:#ddcdb5;}.cls-18{fill:#823913;}.cls-19,.cls-24,.cls-29,.cls-30{mix-blend-mode:multiply;}.cls-20,.cls-23,.cls-29{fill:#39302a;}.cls-21{fill:#f2f6f8;}.cls-22{fill:#dadada;}.cls-23{opacity:0.54;mix-blend-mode:hard-light;}.cls-25{fill:#7e878c;}.cls-26{fill:#89949c;}.cls-27,.cls-30{fill:#00d3f9;}.cls-28{fill:#f79673;}.cls-29{opacity:0.5;}.cls-31{fill:#0058f4;}.cls-32{fill:#d07c61;}.cls-33{fill:#00a1f8;}.cls-34{fill:#a3b2bb;}.cls-35{fill:#fab9a9;}.cls-36{fill:#cd7c61;}</style></defs><title>Recurso 5</title><g class="cls-1"><g id="Capa_2" data-name="Capa 2"><g id="Capa_1-2" data-name="Capa 1"><rect class="cls-2" x="1277.61" y="379.85" width="71.58" height="81.78" transform="translate(2626.81 841.47) rotate(-180)"/><rect class="cls-2" x="1003.9" y="379.85" width="71.58" height="81.78" transform="translate(2079.39 841.47) rotate(-180)"/><path class="cls-3" d="M1331.14,386.56h16.78c24.58,0,44.5,24.79,44.5,55.38s-19.92,55.39-44.5,55.39h-16.78c-24.57,0-44.49-24.8-44.49-55.39S1306.57,386.56,1331.14,386.56Z"/><ellipse class="cls-4" cx="1331.14" cy="441.94" rx="44.5" ry="55.38"/><ellipse class="cls-5" cx="1331.14" cy="441.94" rx="25.33" ry="31.52"/><ellipse class="cls-6" cx="1331.14" cy="441.94" rx="14.44" ry="17.97"/><path class="cls-4" d="M1327.69,441.94c0,2.38,1.54,4.3,3.45,4.3s3.46-1.92,3.46-4.3-1.55-4.3-3.46-4.3S1327.69,439.57,1327.69,441.94Z"/><path class="cls-3" d="M1502.41,386.56h16.78c24.57,0,44.5,24.79,44.5,55.38s-19.93,55.39-44.5,55.39h-16.78c-24.57,0-44.5-24.8-44.5-55.39S1477.84,386.56,1502.41,386.56Z"/><ellipse class="cls-4" cx="1502.41" cy="441.94" rx="44.5" ry="55.38"/><ellipse class="cls-5" cx="1502.41" cy="441.94" rx="25.33" ry="31.52"/><ellipse class="cls-7" cx="1502.41" cy="441.94" rx="14.44" ry="17.97"/><path class="cls-8" d="M1499,441.94c0,2.38,1.55,4.3,3.46,4.3s3.46-1.92,3.46-4.3-1.55-4.3-3.46-4.3S1499,439.57,1499,441.94Z"/><path class="cls-3" d="M1212.09,386.56h16.78c24.57,0,44.5,24.79,44.5,55.38s-19.93,55.39-44.5,55.39h-16.78c-24.57,0-44.5-24.8-44.5-55.39S1187.52,386.56,1212.09,386.56Z"/><ellipse class="cls-4" cx="1212.09" cy="441.94" rx="44.5" ry="55.38"/><ellipse class="cls-5" cx="1212.09" cy="441.94" rx="25.33" ry="31.52"/><ellipse class="cls-7" cx="1212.09" cy="441.94" rx="14.44" ry="17.97"/><path class="cls-8" d="M1208.63,441.94c0,2.38,1.55,4.3,3.46,4.3s3.46-1.92,3.46-4.3-1.55-4.3-3.46-4.3S1208.63,439.57,1208.63,441.94Z"/><path class="cls-3" d="M1054.13,386.56h16.78c24.58,0,44.5,24.79,44.5,55.38s-19.92,55.39-44.5,55.39h-16.78c-24.57,0-44.49-24.8-44.49-55.39S1029.56,386.56,1054.13,386.56Z"/><ellipse class="cls-4" cx="1054.13" cy="441.94" rx="44.5" ry="55.38"/><ellipse class="cls-5" cx="1054.13" cy="441.94" rx="25.33" ry="31.52"/><ellipse class="cls-6" cx="1054.13" cy="441.94" rx="14.44" ry="17.97"/><path class="cls-4" d="M1050.68,441.94c0,2.38,1.55,4.3,3.45,4.3s3.46-1.92,3.46-4.3-1.55-4.3-3.46-4.3S1050.68,439.57,1050.68,441.94Z"/><path class="cls-9" d="M987.46,419.51V377l11-28.38,15.11-1.83,64.54-168h289.75a37.54,37.54,0,0,1,30,15l107.3,142.88c92.77,4.27,142.34,28,142.34,28v22h-6.1v23.8l-.31,20.75h6.41v30.51H1376.67a72.77,72.77,0,0,0,2.6-19.22c0-32.86-21.41-59.5-47.81-59.5s-47.81,26.64-47.81,59.5a72.36,72.36,0,0,0,2.6,19.22H1099.56a72.36,72.36,0,0,0,2.6-19.22c0-32.86-21.4-59.5-47.81-59.5s-47.8,26.64-47.8,59.5a72.36,72.36,0,0,0,2.6,19.22h-5.52l-24.87-8.69V419.51Z"/><path class="cls-9" d="M987.46,419.51V377l11-28.38,15.11-1.83,64.54-168H1252l108,162c58.59,11,110.77,35.39,110.77,35.39v85.44h-94.14a72.77,72.77,0,0,0,2.6-19.22c0-32.86-21.41-59.5-47.81-59.5s-47.81,26.64-47.81,59.5a72.36,72.36,0,0,0,2.6,19.22H1099.56a72.36,72.36,0,0,0,2.6-19.22c0-32.86-21.4-59.5-47.81-59.5s-47.8,26.64-47.8,59.5a72.36,72.36,0,0,0,2.6,19.22h-5.52l-24.87-8.69V419.51Z"/><polygon class="cls-2" points="1641.08 431.11 1470.81 431.11 1460.43 431.11 1460.43 440.14 1447.62 440.14 1447.62 461.62 1647.49 461.62 1647.49 431.11 1641.08 431.11"/><ellipse class="cls-2" cx="1635.59" cy="400.6" rx="11.9" ry="15.26"/><ellipse class="cls-2" cx="1490.95" cy="400.6" rx="11.9" ry="15.26"/><rect class="cls-6" x="1510.17" y="395.26" width="106.19" height="15.56" transform="translate(3126.54 806.07) rotate(-180)"/><rect class="cls-4" x="1510.17" y="399.26" width="106.19" height="1.37" transform="translate(3126.54 799.89) rotate(-180)"/><rect class="cls-4" x="1510.17" y="405.15" width="106.19" height="1.37" transform="translate(3126.54 811.68) rotate(-180)"/><rect class="cls-4" x="1522.22" y="440.14" width="83.01" height="4.51" transform="translate(3127.45 884.8) rotate(-180)"/><rect class="cls-4" x="1614.53" y="440.14" width="14.19" height="4.51" transform="translate(3243.26 884.8) rotate(-180)"/><rect class="cls-4" x="1483.85" y="440.14" width="14.19" height="4.51" transform="translate(2981.9 884.8) rotate(-180)"/><path class="cls-6" d="M1494.31,332.24l-103.09-134.8A26.62,26.62,0,0,0,1370.08,187h-102.6l95.61,145.25Z"/><polygon class="cls-6" points="1339.53 332.24 1243.78 186.99 1171.46 186.99 1171.46 332.24 1339.53 332.24"/><polygon class="cls-6" points="1160.48 186.99 1160.48 332.24 1026.46 332.24 1081.97 186.99 1160.48 186.99"/><path class="cls-9" d="M998.44,348.57h0a7.56,7.56,0,0,1,7.45,11.32l-6,10.38A13.48,13.48,0,0,1,987.46,377h0Z"/><path class="cls-2" d="M978.76,429.58H997.2s-1.61,17.92,1,30.13l-19.4-6.78Z"/><polygon class="cls-10" points="1470.81 431.11 1470.81 461.62 1447.62 461.62 1447.62 440.14 1460.43 440.14 1460.43 431.11 1470.81 431.11"/><g class="cls-11"><polygon class="cls-12" points="1297.32 332.24 1207 186.99 1198.45 186.99 1286.65 332.24 1297.32 332.24"/></g><g class="cls-11"><polygon class="cls-12" points="1273.37 332.24 1183.2 186.99 1171.46 186.99 1171.46 218.12 1240.41 332.24 1273.37 332.24"/></g><g class="cls-11"><path class="cls-12" d="M1118.66,187l41.82,70.49v28.38s-55.62-97.27-54.94-98.87Z"/></g><g class="cls-11"><polygon class="cls-12" points="1160.48 306.92 1091.93 186.99 1087.7 186.99 1160.48 313.63 1160.48 306.92"/></g><g class="cls-11"><polygon class="cls-12" points="1081.62 187.93 1160.48 328.89 1160.48 332.24 1133.06 332.24 1070.41 217.25 1081.62 187.93"/></g><g class="cls-11"><polygon class="cls-12" points="1334.6 186.99 1423.36 239.47 1427.05 244.29 1330.35 186.99 1334.6 186.99"/></g><g class="cls-11"><polygon class="cls-12" points="1441.65 263.38 1310.67 186.99 1293.51 186.99 1455.85 281.95 1441.65 263.38"/></g><g class="cls-11"><polygon class="cls-12" points="1459.21 332.24 1314.54 258.49 1322.67 270.84 1444.33 332.24 1459.21 332.24"/></g><path class="cls-6" d="M1378.9,449.65l68.72,0v1l-68.83,0C1378.82,450.3,1378.86,450,1378.9,449.65Z"/><path class="cls-6" d="M1101.78,449.73l182.24-.05.12,1-182.47,0C1101.71,450.38,1101.75,450.06,1101.78,449.73Z"/><path class="cls-6" d="M993.08,449.76h13.84l.12,1h-14Z"/><path class="cls-6" d="M1174.34,445.14h102.79a.49.49,0,0,0,.49-.48c.88-25.49,8.19-44.18,21.76-55.55,17.46-14.63,39.43-11.69,39.65-11.66a.47.47,0,0,0,.39-.11.5.5,0,0,0,.17-.37V332.24h-1v44.18c-3.58-.36-23.62-1.66-39.85,11.94-13.71,11.47-21.14,30.25-22.1,55.8H1174.83V332.24h-1V444.66a.48.48,0,0,0,.14.34A.5.5,0,0,0,1174.34,445.14Z"/><path class="cls-6" d="M987.46,416.77H1002a.48.48,0,0,0,.48-.49V385.83a.48.48,0,0,0-.48-.49H987.46v1h14v29.47h-14Z"/><path class="cls-6" d="M1108.25,445.24h52.23a.58.58,0,0,0,.59-.59V332.24h-1.19V444.05h-51.05c-.16-6.3-2.85-60-47.43-67.67-.19,0-18.42-2.87-33.74,7.8V332.24h-1.19v53.1a.59.59,0,0,0,.32.53.62.62,0,0,0,.63-.05c15.09-11.17,33.6-8.3,33.79-8.27,46.13,8,46.44,66.5,46.44,67.1a.58.58,0,0,0,.18.42A.59.59,0,0,0,1108.25,445.24Z"/><rect class="cls-6" x="1470.81" y="426.22" width="170.34" height="0.98"/><rect class="cls-6" x="1182.6" y="348.51" width="19.56" height="3.44" transform="translate(2384.75 700.46) rotate(-180)"/><rect class="cls-6" x="1034.57" y="348.51" width="19.56" height="3.44" transform="translate(2088.71 700.46) rotate(-180)"/><path class="cls-13" d="M1617.65,552.86C1300.2,322.48,321.32,331.61,21.58,552.48Z"/><path class="cls-4" d="M734.1,236.83l3.66-7.73h10.77l-3.73,7.73S738.41,238.86,734.1,236.83Z"/><polygon class="cls-14" points="789.95 420.35 891.74 416.11 887.13 409.27 789.95 412.17 789.95 420.35"/><polygon class="cls-4" points="603.69 270.55 551.37 398.12 554.65 402.1 614.21 270.55 603.69 270.55"/><path class="cls-15" d="M615.58,220.68a37.1,37.1,0,0,0,1.09-4.71l-7.57-5.27s-6.4,4-9.33,10Z"/><path class="cls-2" d="M718.52,60.89s-31.59,55.92-55.09,83.61c-29,34.17-54.56,66-54.56,66l9.18,6.41c14.36-11.37,79.39-62.4,103.81-102.16C729.39,97,724.87,66,718.52,60.89Z"/><path class="cls-4" d="M877.58,306.06c-129.07,2.2-129,194.19,0,196.37C1006.65,500.23,1006.63,308.24,877.58,306.06Zm0,186.07c-115.52-2-115.51-173.82,0-175.77C993.11,318.33,993.09,490.17,877.58,492.13Z"/><path class="cls-16" d="M877.58,316.36c-115.52,2-115.51,173.81,0,175.77C993.11,490.16,993.09,318.31,877.58,316.36Zm0,158.68c-93.06-1.59-93-140,0-141.59C970.64,335,970.63,473.46,877.58,475Z"/><polygon class="cls-14" points="775.8 273.62 877.63 396.98 870.94 399.64 775.8 284.72 775.8 273.62"/><path class="cls-17" d="M877.58,394.16c-13.08-.19-13.08,20.36,0,20.16C890.66,414.52,890.66,394,877.58,394.16Zm0,14.69c-6,.09-6-9.3,0-9.21C883.56,399.55,883.56,408.94,877.58,408.85Z"/><path class="cls-4" d="M709.49,369.37s.19,7-2,9.41-10.34,16.8-13.76,17.64-7.52,2.84-5.8,5.6,11.83-.85,14.88-3.28,23-11.39,25.53-15.14c3.61-5.27-7.73-17.09-8.68-19.38Z"/><path class="cls-4" d="M552.16,306.06c-129.07,2.2-129,194.19,0,196.37C681.23,500.23,681.2,308.24,552.16,306.06Zm0,186.07c-115.53-2-115.51-173.82,0-175.77C667.68,318.33,667.67,490.17,552.16,492.13Z"/><path class="cls-9" d="M729.46,210.53s-66.94,5.05-81.73,16.78c-41.42,30.14,54,130.6,58.93,143.47l12.83-6.42s-20.92-87.88-49.34-108.86c0,0,96.57,24.25,149.42-37.8Z"/><rect class="cls-4" x="615.11" y="255.5" width="171.21" height="8.77"/><rect class="cls-14" x="767.03" y="264.27" width="8.77" height="154.3"/><polygon class="cls-4" points="615.12 264.27 717.94 422.07 751.84 422.07 751.84 413.3 723.86 413.23 625.47 264.27 615.12 264.27"/><polygon class="cls-4" points="618.78 235.04 630.87 235.04 614.21 270.55 603.69 270.55 618.78 235.04"/><path class="cls-4" d="M769,418.56c-.71,41.54-62.49,41.53-63.2,0C706.54,377,768.33,377,769,418.56Z"/><path class="cls-9" d="M744.6,216.4C709.19,319.29,710,403.64,744,502.87l17.11-.44s2.1-124.07-11.69-146c0,0,30-58.11,51.84-116.75,0,0,14.55-10.34,18.36-22Z"/><path class="cls-2" d="M819.57,217.7c3.58-18.07-29-143.89-53.34-157-15.68-11.41-37.23-5-37.23-5s-16.73,1-16.73,24.06c0,0,.66,113,23.44,140.2C760.21,243.32,819.57,217.7,819.57,217.7Z"/><polygon class="cls-15" points="741.54 6.64 717.72 7.59 719.03 33.65 742.72 36.58 741.54 6.64"/><path class="cls-15" d="M722.31,61.75c9.89,2.53,31.59-6.82,31.59-6.82-11.18-14.67-11.4-23.87-11.4-23.87l-23.42-4.9C724.82,46.37,722.31,61.75,722.31,61.75Z"/><path class="cls-15" d="M738.26,6.77l-20.54.82C706.3,51,751.59,45.81,738.26,6.77Z"/><path class="cls-18" d="M721.37,36.14s5.9,4.3,13.17-.57c0,0-.7,11.55-11.79,13.28A87.53,87.53,0,0,0,721.37,36.14Z"/><path class="cls-16" d="M552.16,316.36c-115.53,2-115.51,173.81,0,175.77C667.68,490.16,667.67,318.31,552.16,316.36Zm0,158.65c-93-1.58-93-140,0-141.54C645.19,335.06,645.17,473.44,552.16,475Z"/><path class="cls-17" d="M548.86,394.16c-13.08-.19-13.08,20.36,0,20.16C561.94,414.52,561.94,394,548.86,394.16Zm0,14.69c-6,.09-6-9.3,0-9.21C554.84,399.55,554.84,408.94,548.86,408.85Z"/><path class="cls-4" d="M748.06,502.76c-1.22,3.77-8.62,20.8-15,22.78-3.51.33-8.31,1.2-7.43,4.33s11.59,2.49,15.2,1,17.62-3.16,21.14-6c4.94-4.06-2.59-19.94-2.87-22.41Z"/><path class="cls-13" d="M769.77,63.42S785.58,84.73,812,168.26C875.68,166.46,826.27,65,769.77,63.42Z"/><path class="cls-13" d="M769.77,63.42c-28.79-16.54-26.65,67,33.49,78.38l2.35,6C730.67,147.6,726.27,27.29,769.77,63.42Z"/><path class="cls-2" d="M754.53,67.4s1.59,73.65-2.69,102.08-14.73,46.43-22.77,100.58l11.31,2.51c11.45-17.34,55.53-144.93,46.23-179.47C784.89,72.71,762.59,51,754.53,67.4Z"/><path class="cls-13" d="M722.31,61.75s-9.51,27.06-7.64,69c.32-8.56-7.89-62.42,8-73.09A21.35,21.35,0,0,1,722.31,61.75Z"/><g class="cls-19"><path class="cls-2" d="M790.32,106.54s-3.08-7.4-3.43-8.44c2.86,28.68-13.2,94.88-28.6,131.23C768.65,211.6,799.88,133.22,790.32,106.54Z"/></g><path class="cls-20" d="M715,5.16c6.18,18.29,19.1,1.75,26.79,9C749.9.16,735.72,3.82,722.51.49,715.74-1.44,714.17,2.81,715,5.16Z"/><path class="cls-15" d="M738,11.08c5.12-5.15,10,6.41-.18,7a8.3,8.3,0,0,1,.18-7"/><path class="cls-20" d="M715.74,7.12a5.39,5.39,0,0,0,1,5.78C716.93,11.59,717.8,8.79,715.74,7.12Z"/><path class="cls-15" d="M726.27,281.42l.75,1.82s-1.83,2.28-3,12.9c12.15,2,15.46-15.35,15.23-23.83l-9.3-2.05S727.2,278,726.27,281.42Z"/><path class="cls-16" d="M636.32,227.74H590.67c-3-2-8.07-8.57.63-7.41H634ZM591,226.88h44.17l-1.78-5.69H591.26C584,220.41,587.88,224,591,226.88Z"/><polygon class="cls-16" points="588.35 220.74 586.88 221.51 587.18 223.54 590.98 226.88 635.15 226.88 633.37 221.19 588.35 220.74"/><path class="cls-9" d="M304,162.84s-6.71,43.26-15.6,71.32c-4,12.73-11.32,19.36-26.87,21.34-21.78,2.77-75.19,6.2-75.19,6.2l-1.61-10.34s84.67-26.87,79-17.56c0,0,8.57-37.33,16.61-64.74C284.65,154.22,304,162.84,304,162.84Z"/><circle class="cls-4" cx="432.56" cy="521.39" r="73.22" transform="translate(-241.99 458.58) rotate(-45)"/><circle class="cls-21" cx="432.56" cy="521.39" r="56.16"/><circle class="cls-22" cx="432.56" cy="521.39" r="40.08"/><circle class="cls-21" cx="432.56" cy="521.39" r="20.8"/><circle class="cls-4" cx="432.56" cy="521.39" r="9.31"/><path class="cls-23" d="M362.26,500.91A72.53,72.53,0,0,0,360,531.37c.35,0,116.36,14.58,144.74,2.11a74.06,74.06,0,0,0,1-12.09,73.25,73.25,0,0,0-2.93-20.48Z"/><circle class="cls-4" cx="73.22" cy="521.39" r="73.22" transform="translate(-347.24 204.49) rotate(-45)"/><circle class="cls-21" cx="73.22" cy="521.39" r="56.16"/><circle class="cls-22" cx="73.22" cy="521.39" r="40.08"/><circle class="cls-21" cx="73.22" cy="521.39" r="20.8"/><circle class="cls-4" cx="73.22" cy="521.39" r="9.31"/><path class="cls-13" d="M145.8,236.91h6.43v39.87H145.8S136.8,257.12,145.8,236.91Z"/><path class="cls-16" d="M447.15,391.59h12.22V370.36H274.56v5.26a19.59,19.59,0,0,0,6.53,14.71c9.59,8.48,26.31,27,25.85,52.71-.65,36-26.37,53.39-41.81,54l-50.19-.64s-59.07-16.07-65.82-82.33c-6.43-63.15,41.7-138.28,41.7-138.28V259.74l-7.14-9.4a22.82,22.82,0,0,0-13.27-8.48l-18.18-4v37.95h11.9l1.39,2.79a19.32,19.32,0,0,1-.1,17.52l-42.24,81.95S103,382.8,106,405.52l9.38,12.71h0S42.57,385.37.55,458.26c0,0,73.32,53.6,155.65,55.75h18V497.92l16.61,22.52H334.59V500.93H526.26S525.61,421.82,447.15,391.59Z"/><path class="cls-16" d="M447.15,391.59c-27.66-8.36-79.54-10.51-104.41,15.22s-8.15,94.12-8.15,94.12H526.26S525.61,421.82,447.15,391.59Z"/><rect class="cls-4" x="399.43" y="488.16" width="78.47" height="3.63"/><rect class="cls-4" x="399.43" y="479.5" width="78.47" height="3.63"/><rect class="cls-4" x="399.43" y="470.83" width="78.47" height="3.63"/><rect class="cls-4" x="145.8" y="236.91" width="6.43" height="39.88"/><path class="cls-24" d="M165.52,278.61s9,12.83,16.28,12.9c0,0,5.91-11.19,9-15.69H164.13Z"/><path class="cls-24" d="M115.41,418.23l58.8,79.69V514h-18S133.78,453,115.41,418.23Z"/><path class="cls-24" d="M281.09,390.33h78.24s-18.41,5.2-26.44,22.43c0,0-12.38-12.88-46.67-17.51C286.22,395.25,284.09,393.11,281.09,390.33Z"/><rect class="cls-4" x="199.83" y="517.01" width="134.77" height="3.43"/><path class="cls-24" d="M516.47,500.93h9.79s-.65-79.11-79.11-109.34C447.15,391.59,509.19,423.43,516.47,500.93Z"/><path class="cls-24" d="M329.64,468.14l-17.37,32.45,22.32.34A286.9,286.9,0,0,1,329.64,468.14Z"/><polygon class="cls-4" points="306.64 436.05 296.3 436.05 296.3 431.79 306.03 431.79 306.64 436.05"/><path class="cls-13" d="M106,405.52l17.15-27.44S103,382.8,106,405.52Z"/><path class="cls-23" d="M145.9,513.44c-52.47-4-100.08-27.57-125.65-42.58h0a36.32,36.32,0,0,0-4.1,4.68s58,53.11,129.2,58.54c0,0,1.86-8.05.68-20.6Z"/><rect class="cls-25" x="382.89" y="500.91" width="116.6" height="24.18"/><rect class="cls-25" x="334.59" y="515.44" width="50.85" height="1.72"/><rect class="cls-26" x="334.59" y="510.52" width="48.3" height="4.95"/><path class="cls-26" d="M382.89,500.91v6.38s84.23,16.3,116.6,4.29V500.91Z"/><path class="cls-25" d="M437,513.63h-1.48V508.2H437a2.71,2.71,0,0,1,2.71,2.71h0A2.71,2.71,0,0,1,437,513.63Z"/><path class="cls-20" d="M526.19,499.19h-192c.24,1.08.39,1.67.4,1.72H526.26S526.25,500.26,526.19,499.19Z"/><polygon class="cls-25" points="382.89 500.91 499.49 500.91 499.49 504.95 382.89 502.93 382.89 500.91"/><path class="cls-24" d="M180.21,256.85l4.5-5.15-1-1.36a22.82,22.82,0,0,0-13.27-8.48S177.8,246.23,180.21,256.85Z"/><path class="cls-24" d="M507.19,440.34l.07.1c7-6.29,0-16.05,0-16.05v-7.57H488l0,0A116.59,116.59,0,0,1,507.19,440.34Z"/><path class="cls-4" d="M5.28,450.71l-1.07,1.6c18.21,12.38,86.39,54.88,164,54.88q3,0,6.05-.09v-2C94.67,507.46,23.76,463.27,5.28,450.71Z"/><g class="cls-19"><path class="cls-16" d="M283.86,490h0l.26-.19Z"/><path class="cls-16" d="M286.22,395.25h0c9.43,9.77,21.1,26.23,20.72,47.79-.4,22.17-10.3,37.26-21.45,45.75,19.39-14.27,25.93-26.37,26.91-42.53C314.25,415.85,286.22,395.25,286.22,395.25Z"/></g><path class="cls-27" d="M248.24,292.77S216,291.83,219,338.26c2.5,39.82,11.21,154.89,11.21,154.89h16.21s25.52-132.79,9.09-151.82c0,0,52,.66,61.19,0s40-9,43.94-47.37Z"/><path class="cls-9" d="M365.2,243.94c-6.66-34.94-31-78.78-47.25-85.75-15.17-6.53-24.29-2.51-24.29-2.51s-10.67.78-13.55,14.17c-2.52,11.66-1,46.49,1,71.49-.19.75-.35,1.37-.47,1.83-1.43-6.16-79.23,18.53-79.23,18.53L203.06,272s53.41-3.42,75.19-6.2a54.94,54.94,0,0,0,5.53-1c2,11.49,5.59,21.76,9.2,28.55l77,.66C371.15,290.38,370.3,270.64,365.2,243.94Z"/><rect class="cls-4" x="281.09" y="364.15" width="75.7" height="6.22"/><path class="cls-4" d="M279.71,364.15v-3.7a12.38,12.38,0,0,1,12.38-12.38l61-3.37a4.84,4.84,0,0,1,5.1,4.83v14.62Z"/><path class="cls-4" d="M245.29,474.86,244,486.57S222.27,493,222,497.05h36.63a3.34,3.34,0,0,0,2.44-2.95c.23-2.44-2.93-19.24-2.93-19.24Z"/><path class="cls-27" d="M189.69,344.64c-6.75-46.66,38-48.44,38-48.44s65.49-3.07,108.7-3.09c17.25,0,32.93-.34,33.56,1,4.15,8.56-2.51,47-25.78,51.69L292.6,348c-7.77-.46-73-3.34-73-3.34,18.4,4.64,41.52,130.16,41.52,130.16H242.93S197.93,401.61,189.69,344.64Z"/><path class="cls-4" d="M196.23,268.24v-.11a8.7,8.7,0,1,0-8.7,8.7,8.9,8.9,0,0,0,2.14-.27,6.49,6.49,0,1,0,6.56-8.32Z"/><path class="cls-28" d="M195.89,268.22a6.49,6.49,0,0,1,6.33,5.08,5.65,5.65,0,0,0,.84-1.26l-1.61-10.34s-8,1.27-11.85,4.95-7.93,10.64-7.93,10.64h0a6.91,6.91,0,0,0,4.42-1.6c1.25-1.05,2.79-2.31,3.58-2.87A6.49,6.49,0,0,1,195.89,268.22Z"/><path class="cls-29" d="M305.12,244.5c-3.52,11.11-9.52,17.57-21.32,20.35.19,1.11.39,2.21.61,3.29,6.95-1.42,15.54-4.49,20.22-12.88,7.22-13,18.6-74,18.6-74a46.92,46.92,0,0,1-1.38,5.09C317.32,203,310.51,227.48,305.12,244.5Z"/><path class="cls-29" d="M280.67,243.19c1.51-5.82,9.8-37.44,17.48-60.7,0,0-13.68,40.91-18.27,58.72,0,0-3.13-4-78.43,20.49C201.45,261.7,279.43,237,280.67,243.19Z"/><path class="cls-30" d="M258.15,346.42c-19-.86-38.55-1.72-38.55-1.72,12.35,3.12,26.84,60.73,35,98.26l.44-3.16s-16-88-28.62-92.53c0,0,19.93,4.92,33.43,6.62A43.34,43.34,0,0,0,258.15,346.42Z"/><polygon class="cls-24" points="365.25 370.37 459.37 378.47 459.37 370.37 365.25 370.37"/><path class="cls-29" d="M285.19,164.8l5.17,10.51-4-10.58S285.51,164.8,285.19,164.8Z"/><path class="cls-29" d="M283.24,164.51l-2.95,4.55s.42-1.53.61-2.06l1.53-3A2.94,2.94,0,0,0,283.24,164.51Z"/><path class="cls-28" d="M301.79,134.08l-1-20.27-3,.15h0l-18.6.94s-4.72,11.4-2.44,19.55a10.27,10.27,0,0,0,5.16,6.8c2,13.22.34,22.45.34,22.45,2.71,4.83,28.71-7.86,28.71-7.86A50.31,50.31,0,0,1,301.79,134.08Z"/><path class="cls-27" d="M291.37,123.52l.51,7.12a3.84,3.84,0,0,0,5,3.41,34.06,34.06,0,0,0,9.22-4.72,6.4,6.4,0,0,0,2.44-3.4,17,17,0,0,0,.43-7.82,17.25,17.25,0,0,0-32.35-4.9,1.09,1.09,0,0,0,.51,1.5L288.92,120A4.16,4.16,0,0,1,291.37,123.52Z"/><path class="cls-31" d="M277.09,114.71s.51,2.19.93,3.55a27,27,0,0,1,8.26.57Z"/><path class="cls-32" d="M286.28,141.88a15.14,15.14,0,0,0,10.38-6S295.22,142.88,286.28,141.88Z"/><path class="cls-21" d="M299.93,126.81a2.56,2.56,0,1,1-2.56-2.55A2.56,2.56,0,0,1,299.93,126.81Z"/><path class="cls-33" d="M299.12,126.81a1.75,1.75,0,1,1-1.75-1.74A1.75,1.75,0,0,1,299.12,126.81Z"/><polygon class="cls-2" points="310.21 151.55 285.57 162.49 290.36 175.31 296.22 168.28 310.96 155.84 310.21 151.55"/><polygon class="cls-2" points="283.41 162.04 277.81 173.09 282.75 158.7 282.62 160.62 283.41 162.04"/><path class="cls-34" d="M285.57,162.49l-.38,2.31a7.08,7.08,0,0,0,1.21-.07Z"/><path class="cls-34" d="M283.41,162l-.17,2.47a2.61,2.61,0,0,1-.81-.55Z"/><path class="cls-34" d="M310.22,151.55l-2.3-.25a5.9,5.9,0,0,0,.6,1Z"/><path class="cls-9" d="M1006.94,158.78s12.84,22.19,28.77,83.78l31.3,36.57-3,6.46C1004.76,260.5,1018.76,216,1006.94,158.78Z"/><path class="cls-27" d="M1018.65,287.75c32.55,75.81,22.45,165.4,9.58,245H1014s-21.72-89.17-7.08-130.52c0,0-41-67.57-57.05-103.69Z"/><path class="cls-27" d="M1011.71,287.75s-4.77,64.22-8,111.68c-1.56,23.2-33.59,133.27-33.59,133.27H955.94s-2.44-91.35,12.2-132.7c0,0-36.3-92.83-33.84-112.25Z"/><path class="cls-4" d="M1025.81,532.7s3.56,6.44,6.64,7.44,17.21,9.65,20.61,8.72,8-1.18,7.78,2.08-10.74,5-14.59,4.36-25.6,1.22-29.67-.81c-5.72-2.85-1.69-19.32-2-21.79Z"/><path class="cls-4" d="M968.09,532.7s3.57,6.44,6.64,7.44,17.21,9.65,20.61,8.72,7.95-1.18,7.79,2.08-10.75,5-14.6,4.36-25.59,1.22-29.67-.81c-5.72-2.85-1.69-19.32-2-21.79Z"/><path class="cls-4" d="M1123.77,592.74c38.7-.66,38.71-58.23,0-58.89C1085.08,534.51,1085.07,592.08,1123.77,592.74Zm0-50.48c27.64.47,27.65,41.59,0,42.07C1096.13,583.86,1096.13,542.74,1123.77,542.26Z"/><path class="cls-22" d="M1102.74,563.3c.48,27.64,41.6,27.64,42.06,0C1144.33,535.65,1103.21,535.65,1102.74,563.3Z"/><path class="cls-4" d="M1111.05,563.3c.07,16.63,25.38,16.63,25.45,0S1111.12,546.66,1111.05,563.3Z"/><path class="cls-22" d="M1113.88,563.3c-.18,12.83,20,12.83,19.78,0C1133.85,550.46,1113.69,550.46,1113.88,563.3Z"/><path class="cls-4" d="M912.86,592.74c38.7-.66,38.7-58.23,0-58.89C874.16,534.51,874.16,592.08,912.86,592.74Zm0-50.48c27.64.47,27.64,41.59,0,42.07C885.22,583.86,885.22,542.74,912.86,542.26Z"/><path class="cls-22" d="M891.83,563.3c.47,27.64,41.59,27.64,42.06,0C933.42,535.65,892.3,535.66,891.83,563.3Z"/><path class="cls-4" d="M900.14,563.3c.07,16.63,25.37,16.63,25.44,0S900.21,546.66,900.14,563.3Z"/><path class="cls-22" d="M903,563.3c-.19,12.83,20,12.83,19.78,0C922.94,550.46,902.78,550.46,903,563.3Z"/><polygon class="cls-4" points="1118.37 524.87 1068.65 299.47 1059.88 299.47 1109.71 524.87 1118.37 524.87"/><polygon class="cls-16" points="1114.04 492.98 1127.51 558.04 1114.24 558.04 1100.26 492.98 1114.04 492.98"/><path class="cls-16" d="M1127.5,558c1.8,4.84-1.63,7.4-6.25,6.73,0,0-2-6.41-7-6.73Z"/><polygon class="cls-16" points="1101.99 501 1070.93 555.16 916.25 555.16 916.25 563.17 1074.14 563.17 1104.28 511.68 1101.99 501"/><polygon class="cls-4" points="1104.28 511.68 1105.17 515.81 1075.1 567.78 923.15 567.78 916.25 563.17 1074.14 563.17 1104.28 511.68"/><path class="cls-16" d="M916.6,555.16H913c-6.78,7.63-5.56,8.37,4.06,8Z"/><path class="cls-20" d="M1122.3,561a1.48,1.48,0,0,0,3,0A1.48,1.48,0,0,0,1122.3,561Z"/><path class="cls-22" d="M909.91,561a1.48,1.48,0,0,0,3,0A1.48,1.48,0,0,0,909.91,561Z"/><path class="cls-4" d="M944.19,555.16s-7-23.69-31.33-24.24c10.8-5.25,27,2.9,36,24.24Z"/><path class="cls-22" d="M1060.47,292.63h18.24l-2,7.27h-17.33Zm17.11.86h-16.37l-.83,5.55h15.68Z"/><polygon class="cls-22" points="1060.38 299.04 1076.19 299.47 1078.11 293.06 1061 293.06 1060.38 299.04"/><path class="cls-9" d="M946,297.42c-14.19-8.34-13.32-14.08-13.46-15.16-3.4-38.65,5.92-92.49,10.42-115.14,3.14-12,8.72-18.2,15.72-19.87,20-4.78,29.43-1.15,29.43-1.15s16.88,1.26,22.34,21.09c0,0,14.27,78.74,8.17,119.5-6.49,25.89-72.43,14.21-72.62,10.73Z"/><polygon class="cls-35" points="975.79 97.45 999.61 98.4 998.3 124.45 974.61 127.39 975.79 97.45"/><path class="cls-35" d="M994.72,149.82c-5.34,6.49-28.34-4.09-28.34-4.09,8.71-12.71,8.45-23.86,8.45-23.86l23.42-4.9C992.51,137.18,994.72,149.82,994.72,149.82Z"/><path class="cls-35" d="M979.07,97.58l20.54.82C1011,141.83,965.75,136.62,979.07,97.58Z"/><path class="cls-36" d="M996,127a9.48,9.48,0,0,1-7.65,1.63s1.34,9.89,6.08,10.86A109.6,109.6,0,0,1,996,127Z"/><path class="cls-35" d="M1066.22,279s6.69,2.16,10.83,5,8.77,11.72,6.78,14.21c-1.23,1.54-9.46,1.42-11.81-1.32C1067.25,289.38,1060.58,286.5,1066.22,279Z"/><g class="cls-19"><path class="cls-27" d="M1003.9,397.12s6.82-82.13,6.18-87.12c0,0,1.93,54.73-3.14,92.18Z"/></g><path class="cls-20" d="M999.61,98.4s-.29,7.08-24.32,11.82c0,0-7.86-7.88-.68-16.83C982.32,83.77,1001.12,90.63,999.61,98.4Z"/><path class="cls-20" d="M999.61,98.4s4.19-1.07,1.34,7.65C1001,106.05,1000.19,101.62,999.61,98.4Z"/><path class="cls-20" d="M960.31,94.53c-.17,11.37,17.68,11.37,17.51,0C978,83.17,960.14,83.17,960.31,94.53Z"/><path class="cls-13" d="M948.48,154.51c-13.66,10.4-61.61,97.8-16.63,111.74C931.85,266.25,934.47,182.33,948.48,154.51Z"/><path class="cls-13" d="M958.71,147.25c49.68,4.29-7.11,116.19-26.14,103.9l-.2,3.48c20.15.72,45.63-40.44,50-75.6C984.86,143.05,967.07,144.5,958.71,147.25Z"/><path class="cls-9" d="M942.46,169.47c-.33,52.95,13.91,92.7,121.54,116.12l3-6.46s-37.76-32.26-78.23-45.95c0,0-13.82-63.87-17.9-75.66S947,143.06,942.46,169.47Z"/><g class="cls-19"><path class="cls-9" d="M942.35,172.58h0c.71,32.8,7.35,78,69.36,96.94h0c-3.26-1.25-41.47-7.79-56.25-29.23C935.43,205.79,938.07,190.05,942.35,172.58Z"/></g><path class="cls-6" d="M984.85,120.41a.93.93,0,0,1,1.17-1.3,8.54,8.54,0,0,0,1,.35,7.34,7.34,0,0,0,2.08.36,6,6,0,0,0,2-.38A8,8,0,0,0,992,119a.93.93,0,0,1,1.25,1.23,4.66,4.66,0,0,1-4.19,2.61,4.9,4.9,0,0,1-4.21-2.46Z"/><path class="cls-6" d="M721.91,29.2a.93.93,0,0,1,.76-1.58c.35,0,.69.07,1,.08a6.7,6.7,0,0,0,2.1-.24,5.62,5.62,0,0,0,1.83-.92,8.66,8.66,0,0,0,.78-.65.93.93,0,0,1,1.54.84,4.62,4.62,0,0,1-3.3,3.66A4.85,4.85,0,0,1,723,30,4.46,4.46,0,0,1,721.91,29.2Z"/><path class="cls-6" d="M279.59,133.73a.93.93,0,0,1,1.29-1.19c.31.17.61.32.91.45a7.05,7.05,0,0,0,2,.56,5.93,5.93,0,0,0,2-.18,8.19,8.19,0,0,0,1-.31A.93.93,0,0,1,288,134.4a4.85,4.85,0,0,1-.85,1,4.6,4.6,0,0,1-3.57,1.16,4.89,4.89,0,0,1-3.27-1.75A4.67,4.67,0,0,1,279.59,133.73Z"/></g></g></g></svg>